<svg xmlns="http://www.w3.org/2000/svg" version="1.1" xmlns:xlink="http://www.w3.org/1999/xlink" xmlns:svgjs="http://svgjs.dev/svgjs" width="1250" height="560" preserveAspectRatio="none" viewBox="0 0 1440 560">
    <g mask="url(&quot;#SvgjsMask1019&quot;)" fill="none">
        <path d="M93.62 658.38C314.35 629.14 440.81 121.97 803.38 120.38 1165.95 118.79 1325.79 357.93 1513.14 361.18" stroke="rgba(133, 14, 53, 1)" stroke-width="2"></path>
        <path d="M447.66 595.98C573.1 584.79 654.22 326.57 872.47 325.21 1090.73 323.85 1084.88 395.21 1297.29 395.21 1509.69 395.21 1614.46 325.44 1722.1 325.21" stroke="rgba(133, 14, 53, 1)" stroke-width="2"></path>
        <path d="M547.17 669.13C660.85 654.04 636.21 392.18 912.6 391.88 1189 391.58 1457.69 525.72 1643.47 526.28" stroke="rgba(133, 14, 53, 1)" stroke-width="2"></path>
        <path d="M400.26 637.91C562.05 584.26 589.51 125.63 834.22 112.04 1078.94 98.45 1051.2 182.04 1268.19 182.04 1485.17 182.04 1592.26 112.26 1702.15 112.04" stroke="rgba(133, 14, 53, 1)" stroke-width="2"></path>
        <path d="M275.3 625.66C456.28 611.94 563.16 263.36 899.06 254.15 1234.95 244.94 1363.58 126.02 1522.81 125.35" stroke="rgba(133, 14, 53, 1)" stroke-width="2"></path>
    </g>
    <defs>
        <mask id="SvgjsMask1019">
            <rect width="1250" height="560" fill="#fff5e4"></rect>
        </mask>
    </defs>
</svg>